<?xml version="1.0" encoding="iso-8859-1"?>
<!-- Generator: Adobe Illustrator 19.0.0, SVG Export Plug-In . SVG Version: 6.00 Build 0)  -->
<svg version="1.1" id="Capa_1" xmlns="http://www.w3.org/2000/svg" xmlns:xlink="http://www.w3.org/1999/xlink" x="0px" y="0px"
	 viewBox="0 0 512 512" style="enable-background:new 0 0 512 512;" xml:space="preserve">
<path style="fill:#EC87C0;" d="M429.945,327.356c0-4.285-3.473-7.758-7.758-7.758H261.178H100.169c-4.284,0-7.757,3.472-7.757,7.758
	c0,2.182,0.904,4.152,2.355,5.562l-0.01,0.025l160.689,146.916c1.576,1.44,3.654,2.161,5.732,2.159
	c2.078,0.002,4.156-0.718,5.732-2.159l160.689-146.916l-0.01-0.025C429.039,331.507,429.945,329.539,429.945,327.356z"/>
<path style="fill:#D770AD;" d="M255.45,479.861c1.123,1.026,2.503,1.679,3.954,1.973c0.074,0.016,0.148,0.036,0.222,0.05
	c0.121,0.022,0.244,0.032,0.366,0.049c0.135,0.018,0.27,0.04,0.406,0.053c0.068,0.006,0.137,0.004,0.205,0.009
	c0.191,0.012,0.384,0.024,0.575,0.024c2.073-0.001,4.144-0.72,5.717-2.157l84.781-77.515l75.919-69.412l-0.007-0.017
	c1.451-1.41,2.355-3.379,2.355-5.562c0-4.285-3.473-7.758-7.758-7.758h-11.039L245.655,470.907L255.45,479.861z"/>
<path style="fill:#E6E9ED;" d="M442.182,210.993c0,40.743-13.467,78.352-36.192,108.606c-33.017,43.97-85.602,72.404-144.818,72.404
	s-111.792-28.434-144.808-72.404c-22.735-30.255-36.202-67.863-36.202-108.606c0-99.969,81.051-181.01,181.01-181.01
	C361.141,29.982,442.182,111.022,442.182,210.993z"/>
<g>
	<path style="fill:#DADDE1;" d="M261.172,29.982c-5.228,0-10.4,0.235-15.516,0.669c92.703,7.872,165.493,85.6,165.493,180.342
		c0,40.743-13.467,78.352-36.192,108.606c-30.103,40.088-76.473,67.251-129.302,71.737c5.116,0.434,10.289,0.667,15.517,0.667
		c59.216,0,111.802-28.434,144.818-72.404c22.725-30.255,36.192-67.863,36.192-108.606
		C442.182,111.022,361.141,29.982,261.172,29.982z"/>
	<path style="fill:#DADDE1;" d="M261.172,329.942c-65.701,0-118.949-53.258-118.949-118.949s53.248-118.95,118.949-118.95
		c65.691,0,118.949,53.258,118.949,118.95S326.863,329.942,261.172,329.942z"/>
</g>
<path style="fill:#CCD1D9;" d="M261.172,92.043c-5.26,0-10.437,0.345-15.516,1.007c58.367,7.604,103.432,57.511,103.432,117.942
	s-45.065,110.339-103.432,117.942c5.079,0.662,10.257,1.007,15.516,1.007c65.702,0,118.949-53.258,118.949-118.949
	S326.873,92.043,261.172,92.043z"/>
<g>
	<path style="fill:#DADDE1;" d="M59.475,84.286c-4.284,0-7.758,3.472-7.758,7.758v33.616H41.374V92.043
		c0-4.285-3.473-7.758-7.758-7.758s-7.758,3.472-7.758,7.758v33.616H15.515V92.043c0-4.285-3.473-7.758-7.758-7.758
		S0,87.758,0,92.043v56.889c0,15.866,11.052,29.19,25.859,32.703v148.307c0,4.285,3.473,7.758,7.758,7.758s7.758-3.472,7.758-7.758
		V181.635c14.807-3.513,25.859-16.837,25.859-32.703V92.043C67.232,87.758,63.759,84.286,59.475,84.286z"/>
	<path style="fill:#DADDE1;" d="M473.212,84.286c-4.284,0-7.758,3.472-7.758,7.758v237.899c0,4.285,3.473,7.758,7.758,7.758
		c4.284,0,7.758-3.472,7.758-7.758V213.578h23.273c4.284,0,7.758-3.472,7.758-7.758v-82.747
		C512,101.685,494.6,84.286,473.212,84.286z"/>
</g>
<path style="fill:#ED5565;" d="M316.881,166.826c-15.381-15.381-40.329-15.381-55.689,0c-15.391-15.381-40.339-15.381-55.71,0
	c-15.381,15.381-15.381,40.32,0,55.7l50.119,50.151h0.006c1.41,1.452,3.38,2.358,5.564,2.358s4.154-0.906,5.564-2.358h0.006
	l50.14-50.151C332.252,207.145,332.252,182.207,316.881,166.826z"/>
<path style="fill:#DA4453;" d="M316.881,166.826c-11.725-11.725-29.007-14.501-43.367-8.348c4.479,1.918,8.678,4.693,12.334,8.348
	c15.37,15.381,15.37,40.32,0,55.7l-40.19,40.2l9.944,9.951h0.006c1.41,1.452,3.38,2.358,5.564,2.358s4.154-0.906,5.564-2.358h0.006
	l50.14-50.151C332.252,207.145,332.252,182.207,316.881,166.826z"/>
<g>
</g>
<g>
</g>
<g>
</g>
<g>
</g>
<g>
</g>
<g>
</g>
<g>
</g>
<g>
</g>
<g>
</g>
<g>
</g>
<g>
</g>
<g>
</g>
<g>
</g>
<g>
</g>
<g>
</g>
</svg>
