<?xml version="1.0" encoding="iso-8859-1"?>
<!-- Generator: Adobe Illustrator 19.0.0, SVG Export Plug-In . SVG Version: 6.00 Build 0)  -->
<svg version="1.1" id="Capa_1" xmlns="http://www.w3.org/2000/svg" xmlns:xlink="http://www.w3.org/1999/xlink" x="0px" y="0px"
	 viewBox="0 0 512 512" style="enable-background:new 0 0 512 512;" xml:space="preserve">
<path style="fill:#656D78;" d="M479.319,108.936h-54.468l-30.46-50.751l-0.01-0.005c-1.459-2.233-3.976-3.712-6.842-3.712h-0.001
	l0,0H233.396c-3.044,0-5.694,1.668-7.099,4.136l-0.006,0.004l-30.205,50.329h-87.149H43.574H32.681
	C14.706,108.936,0,123.643,0,141.617v87.421v43.302v43.302v43.302v65.906c0,17.974,14.706,32.681,32.681,32.681h76.255h370.383
	c17.974,0,32.681-14.706,32.681-32.681V141.617C512,123.643,497.294,108.936,479.319,108.936z"/>
<path style="fill:#DA4453;" d="M100.766,76.255c4.494,0,8.17,3.677,8.17,8.17v24.693H43.574V84.426c0-4.494,3.677-8.17,8.17-8.17
	h49.022V76.255z"/>
<path style="fill:#515760;" d="M479.319,108.936h-33.771c17.974,0,32.681,14.706,32.681,32.681v283.234
	c0,17.974-14.706,32.681-32.681,32.681h33.771c17.974,0,32.681-14.706,32.681-32.681V141.617
	C512,123.643,497.294,108.936,479.319,108.936z"/>
<g>
	<path style="fill:#434A54;" d="M462.989,141.617c9.02,0,16.34,7.321,16.34,16.34c0,9.031-7.32,16.351-16.34,16.351
		c-9.031,0-16.351-7.32-16.351-16.351C446.638,148.938,453.958,141.617,462.989,141.617z"/>
	<path style="fill:#434A54;" d="M446.628,261.447c15.044,0,27.234,12.19,27.234,27.234c0,15.033-12.19,27.234-27.234,27.234
		c-0.915,0-1.808-0.044-2.702-0.131c1.775-8.759,2.702-17.822,2.702-27.103s-0.927-18.345-2.702-27.103
		C444.809,261.49,445.713,261.447,446.628,261.447z"/>
</g>
<path style="fill:#CCD1D9;" d="M443.926,261.578c1.775,8.759,2.702,17.822,2.702,27.103s-0.927,18.345-2.702,27.103
	c-12.56,62.214-67.54,109.067-133.468,109.067c-75.21,0-136.17-60.972-136.17-136.17c0-75.21,60.961-136.17,136.17-136.17
	C376.385,152.511,431.366,199.353,443.926,261.578z"/>
<path style="fill:#AAB2BD;" d="M443.926,261.578c-12.56-62.224-67.54-109.067-133.468-109.067c-5.53,0-10.98,0.338-16.336,0.979
	c58.507,7,105.615,51.086,117.12,108.088c1.776,8.759,2.702,17.822,2.702,27.103s-0.927,18.345-2.702,27.103
	c-11.505,56.993-58.613,101.087-117.12,108.088c5.356,0.64,10.806,0.979,16.336,0.979c65.928,0,120.909-46.853,133.468-109.067
	c1.775-8.759,2.702-17.822,2.702-27.103S445.701,270.336,443.926,261.578z"/>
<path style="fill:#ED5565;" d="M310.457,185.191c57.159,0,103.489,46.33,103.489,103.489s-46.331,103.489-103.489,103.489
	c-57.16,0-103.489-46.33-103.489-103.489C206.968,231.522,253.298,185.191,310.457,185.191z"/>
<path style="fill:#CE3A50;" d="M310.457,185.191c-5.562,0-11.019,0.444-16.342,1.288c49.393,7.835,87.148,50.603,87.148,102.201
	s-37.755,94.366-87.148,102.201c5.323,0.844,10.781,1.288,16.342,1.288c57.159,0,103.489-46.33,103.489-103.489
	C413.947,231.522,367.616,185.191,310.457,185.191z"/>
<g>
	<path style="fill:#434A54;" d="M108.936,133.447c-4.513,0-8.17,3.658-8.17,8.17v315.915h8.17h8.17V141.617
		C117.106,137.105,113.449,133.447,108.936,133.447z"/>
	<path style="fill:#434A54;" d="M0,237.209h32.681c4.513,0,8.17-3.658,8.17-8.17s-3.657-8.17-8.17-8.17H0v8.17V237.209z"/>
	<path style="fill:#434A54;" d="M0,280.511h32.681c4.513,0,8.17-3.658,8.17-8.17c0-4.512-3.657-8.17-8.17-8.17H0v8.17V280.511z"/>
	<path style="fill:#434A54;" d="M0,323.813h32.681c4.513,0,8.17-3.658,8.17-8.17c0-4.512-3.657-8.17-8.17-8.17H0v8.17V323.813z"/>
	<path style="fill:#434A54;" d="M0,367.115h32.681c4.513,0,8.17-3.658,8.17-8.17c0-4.512-3.657-8.17-8.17-8.17H0v8.17V367.115z"/>
</g>
<path style="fill:#E6E9ED;" d="M174.298,171.574h-32.681c-4.513,0-8.17-3.658-8.17-8.17s3.657-8.17,8.17-8.17h32.681
	c4.513,0,8.17,3.658,8.17,8.17C182.468,167.917,178.811,171.574,174.298,171.574z"/>
<path style="fill:#7A8087;" d="M388.863,105.902l-8.715-21.787c-0.003-0.01-0.011-0.017-0.014-0.027
	c-1.213-2.994-4.143-5.109-7.572-5.109H248.374c-3.429,0-6.36,2.114-7.571,5.109c-0.004,0.009-0.011,0.018-0.015,0.027
	l-8.715,21.787c-1.676,4.19,0.363,8.945,4.552,10.62c0.995,0.398,2.021,0.587,3.032,0.587c3.242,0,6.311-1.944,7.588-5.138
	l6.661-16.652H367.03l6.661,16.652c1.278,3.194,4.346,5.138,7.588,5.138c1.011,0,2.037-0.188,3.032-0.587
	C388.5,114.846,390.538,110.091,388.863,105.902z"/>
<path style="fill:#E6E9ED;" d="M351.068,256.479c-11.22-11.21-29.401-11.21-40.611,0c-11.22-11.21-29.402-11.21-40.612,0
	c-11.21,11.21-11.22,29.402,0,40.612l34.588,34.558h0.011c1.494,1.625,3.63,2.649,6.011,2.649c2.381,0,4.517-1.024,6.011-2.649
	h0.045l34.557-34.558C362.278,285.881,362.278,267.689,351.068,256.479z"/>
<g>
</g>
<g>
</g>
<g>
</g>
<g>
</g>
<g>
</g>
<g>
</g>
<g>
</g>
<g>
</g>
<g>
</g>
<g>
</g>
<g>
</g>
<g>
</g>
<g>
</g>
<g>
</g>
<g>
</g>
</svg>
